<?xml version="1.0" encoding="UTF-8" standalone="no"?>
<svg width="32px" height="25px" viewBox="0 0 32 25" version="1.1" xmlns="http://www.w3.org/2000/svg" xmlns:xlink="http://www.w3.org/1999/xlink" xmlns:sketch="http://www.bohemiancoding.com/sketch/ns">
    <!-- Generator: Sketch 3.2.2 (9983) - http://www.bohemiancoding.com/sketch -->
    <title>Shape</title>
    <desc>Created with Sketch.</desc>
    <defs></defs>
    <g id="Page-1" stroke="none" stroke-width="1" fill="none" fill-rule="evenodd" sketch:type="MSPage">
        <g id="1423083005_menu-alt" sketch:type="MSLayerGroup" fill="#C2C2C2">
            <path d="M2.28571429,4.8625 L29.7142857,4.8625 C30.976,4.8625 32,3.7873 32,2.4625 C32,1.1377 30.976,0.0625 29.7142857,0.0625 L2.28571429,0.0625 C1.024,0.0625 0,1.1377 0,2.4625 C0,3.7873 1.024,4.8625 2.28571429,4.8625 L2.28571429,4.8625 Z M29.7142857,9.6625 L2.28571429,9.6625 C1.024,9.6625 0,10.7377 0,12.0625 C0,13.3873 1.024,14.4625 2.28571429,14.4625 L29.7142857,14.4625 C30.976,14.4625 32,13.3873 32,12.0625 C32,10.7377 30.976,9.6625 29.7142857,9.6625 L29.7142857,9.6625 Z M29.7142857,19.2625 L2.28571429,19.2625 C1.024,19.2625 0,20.3377 0,21.6625 C0,22.9873 1.024,24.0625 2.28571429,24.0625 L29.7142857,24.0625 C30.976,24.0625 32,22.9873 32,21.6625 C32,20.3377 30.976,19.2625 29.7142857,19.2625 L29.7142857,19.2625 Z" id="Shape" sketch:type="MSShapeGroup"></path>
        </g>
    </g>
</svg>